<svg width="114" height="125" viewBox="0 0 114 125" fill="none" xmlns="http://www.w3.org/2000/svg">
<g clip-path="url(#clip0_1246_2924)">
<path d="M60.9497 0V28.2915L62.8139 35.5816V58.84H59.5665V35.5816L57.7023 28.2915V0H60.9497ZM63.7461 0V28.2915L65.6003 35.5816V58.84H68.8778V35.5816L67.0135 28.2915V0H63.7461ZM73.0573 10.2061V28.2915L78.64 35.5816V58.84H75.4026V35.5816L69.8099 28.2915V10.2061H73.0573ZM75.8537 10.2061V28.2915L81.4364 35.5816V58.84H84.7038V35.5816L79.1211 28.2915V10.2061H75.8537ZM54.9059 0V28.2915L53.0416 35.5816V58.84H49.7842V35.5816L51.6485 28.2915V0H54.9059ZM45.5947 0V28.2915L43.7304 35.5816V58.84H46.9878V35.5816L48.8521 28.2915V0H45.5947ZM42.7983 10.2061V28.2915L37.2055 35.5816V58.84H33.9581V35.5816L39.5408 28.2915V10.2061H42.7983ZM33.487 10.2061V28.2915L27.9043 35.5816V58.84H31.2118V35.5816L36.7946 28.2915V10.2061H33.487Z" fill="white"/>
<path d="M89.014 67.2986V76.3862H96.1002V74.6885H91.0888V72.6912H95.4788V70.9935H91.0888V68.9963H95.9699V67.2986H89.014ZM85.4359 74.1992C84.8855 74.4934 84.2758 74.6606 83.6518 74.6885C82.8969 74.6885 82.1728 74.3897 81.639 73.8578C81.1052 73.3259 80.8053 72.6046 80.8053 71.8524C80.8053 71.1002 81.1052 70.3788 81.639 69.8469C82.1728 69.315 82.8969 69.0162 83.6518 69.0162C84.5808 69.036 85.4711 69.3908 86.1575 70.0149L87.3202 68.5469C86.287 67.6983 84.9907 67.2325 83.6518 67.2287C83.0258 67.1932 82.3992 67.2844 81.8096 67.497C81.22 67.7095 80.6798 68.0388 80.2215 68.4651C79.7632 68.8914 79.3964 69.4057 79.1431 69.9772C78.8898 70.5486 78.7554 71.1653 78.748 71.7899C78.7405 72.4146 78.8602 73.0342 79.0997 73.6115C79.3393 74.1888 79.6937 74.7117 80.1417 75.1488C80.5897 75.5858 81.1219 75.9278 81.7063 76.1542C82.2906 76.3806 82.9149 76.4867 83.5415 76.4661C84.8635 76.4424 86.1495 76.0327 87.24 75.2877V71.7925H85.4359V74.1992ZM71.9351 69.0462H73.8394C74.972 69.0462 75.6235 69.5555 75.6235 70.5741C75.6235 71.5927 74.972 72.132 73.8394 72.132H71.9351V69.0462ZM77.8085 76.4361L75.8741 73.4402C76.4225 73.1797 76.8789 72.7597 77.1831 72.2356C77.4873 71.7114 77.6249 71.1078 77.5779 70.5042C77.5779 68.5069 76.2248 67.3485 73.8394 67.3485H69.8804V76.4361H71.885V73.8397H73.9797L75.433 76.4361H77.8085ZM63.6462 69.0462C64.3706 69.0891 65.0512 69.406 65.5489 69.9323C66.0466 70.4585 66.3238 71.1543 66.3238 71.8773C66.3238 72.6004 66.0466 73.2962 65.5489 73.8224C65.0512 74.3486 64.3706 74.6656 63.6462 74.7085C63.2737 74.7059 62.9053 74.6302 62.5622 74.4857C62.2191 74.3413 61.9079 74.1309 61.6463 73.8666C61.3848 73.6023 61.1781 73.2893 61.038 72.9454C60.8979 72.6015 60.8271 72.2335 60.8297 71.8624C60.8271 71.4926 60.8981 71.1261 61.0385 70.7838C61.179 70.4416 61.3862 70.1306 61.6481 69.8687C61.91 69.6068 62.2215 69.3992 62.5645 69.258C62.9074 69.1169 63.2751 69.0449 63.6462 69.0462ZM63.6462 67.2586C62.7398 67.3075 61.8677 67.6201 61.1378 68.1578C60.4079 68.6955 59.8523 69.4346 59.5398 70.2838C59.2273 71.1329 59.1716 72.0547 59.3796 72.935C59.5876 73.8154 60.0502 74.6156 60.71 75.2367C61.3699 75.8578 62.198 76.2724 63.092 76.4292C63.9859 76.5861 64.9064 76.4783 65.7395 76.1191C66.5726 75.76 67.2817 75.1653 67.779 74.4087C68.2762 73.6521 68.5399 72.7668 68.5373 71.8624C68.5341 71.2357 68.4033 70.6161 68.1529 70.0413C67.9025 69.4664 67.5376 68.9481 67.0804 68.5177C66.6232 68.0874 66.0831 67.7539 65.4928 67.5375C64.9025 67.3211 64.2743 67.2262 63.6462 67.2586ZM50.6866 67.3185V76.4062H57.7828V74.7085H52.7714V72.7112H57.1614V71.0135H52.7714V69.0162H57.6525V67.3185H50.6866ZM47.1084 74.2191C46.558 74.5133 45.9483 74.6806 45.3244 74.7085C44.5694 74.7085 43.8454 74.4097 43.3116 73.8778C42.7778 73.3459 42.4779 72.6245 42.4779 71.8723C42.4779 71.1202 42.7778 70.3988 43.3116 69.8669C43.8454 69.335 44.5694 69.0362 45.3244 69.0362C46.2503 69.0565 47.1372 69.4114 47.8201 70.0348L48.9827 68.5668C47.9526 67.7197 46.66 67.2539 45.3244 67.2486C44.6986 67.2127 44.0719 67.3034 43.4823 67.5154C42.8927 67.7273 42.3522 68.0561 41.8936 68.4819C41.435 68.9077 41.0677 69.4216 40.814 69.9927C40.5602 70.5638 40.4251 71.1802 40.417 71.8047C40.4089 72.4292 40.5278 73.0489 40.7666 73.6263C41.0055 74.2038 41.3593 74.7271 41.8066 75.1645C42.254 75.602 42.7857 75.9447 43.3696 76.1718C43.9535 76.3989 44.5776 76.5058 45.2041 76.4861C46.5261 76.4623 47.812 76.0526 48.9025 75.3077V71.8124H47.1185L47.1084 74.2191ZM37.3963 74.2191C36.8469 74.5159 36.2366 74.6833 35.6122 74.7085C34.8573 74.7085 34.1333 74.4097 33.5994 73.8778C33.0656 73.3459 32.7657 72.6245 32.7657 71.8723C32.7657 71.1202 33.0656 70.3988 33.5994 69.8669C34.1333 69.335 34.8573 69.0362 35.6122 69.0362C36.5409 69.0577 37.4306 69.4123 38.1179 70.0348L39.2706 68.5668C38.2413 67.7183 36.9482 67.2523 35.6122 67.2486C34.9864 67.2127 34.3598 67.3034 33.7702 67.5154C33.1805 67.7273 32.6401 68.0561 32.1815 68.4819C31.7229 68.9077 31.3556 69.4216 31.1018 69.9927C30.848 70.5638 30.713 71.1802 30.7049 71.8047C30.6967 72.4292 30.8157 73.0489 31.0545 73.6263C31.2933 74.2038 31.6471 74.7271 32.0945 75.1645C32.5418 75.602 33.0735 75.9447 33.6574 76.1718C34.2414 76.3989 34.8654 76.5058 35.4919 76.4861C36.8139 76.4623 38.0999 76.0526 39.1904 75.3077V71.8124H37.4063L37.3963 74.2191ZM27.203 76.3862H29.2076V67.2986H27.203V76.3862ZM22.0112 74.7185H20.0066V72.5614H22.0112C23.0135 72.5614 23.5748 72.9509 23.5748 73.5601C23.5748 74.1692 22.9734 74.6685 22.0112 74.6685V74.7185ZM22.0112 70.9136H20.0066V68.9164H22.0112C22.793 68.9164 23.2641 69.2659 23.2641 69.915C23.2641 70.5641 22.793 70.9136 22.0112 70.9136ZM22.1215 67.2486H17.9219V76.3363H22.2618C24.3666 76.3363 25.6996 75.3376 25.6996 73.8197C25.7252 73.2696 25.5444 72.7296 25.1924 72.305C24.8404 71.8805 24.3423 71.6016 23.7953 71.5228C24.2493 71.4234 24.6546 71.1697 24.9416 70.8054C25.2287 70.441 25.3797 69.9886 25.3689 69.5255C25.3689 68.1174 24.126 67.2486 22.1215 67.2486Z" fill="white"/>
<path d="M36.7727 83.0271C36.7727 83.816 36.2615 84.1955 35.3595 84.1955H34.0465V81.8786H35.3595C36.2615 81.8786 36.7727 82.2481 36.7727 83.0271ZM37.9153 83.0271C37.9153 81.6489 37.0032 80.87 35.4196 80.87H32.8438V87.1414H34.0465V85.294H35.4196C35.7396 85.342 36.0662 85.3184 36.3758 85.2247C36.6854 85.1311 36.9701 84.9698 37.2092 84.7526C37.4483 84.5354 37.6358 84.2678 37.7579 83.9693C37.8801 83.6708 37.9338 83.3489 37.9153 83.0271ZM41.5336 84.2354H40.1103V81.9186H41.5336C42.4356 81.9186 42.9368 82.2881 42.9368 83.067C42.9368 83.8459 42.4356 84.2354 41.5336 84.2354ZM44.2197 87.1414L42.8365 85.0243C43.2309 84.8667 43.5647 84.5883 43.7899 84.2293C44.0151 83.8703 44.12 83.4493 44.0894 83.0271C44.0894 81.6489 43.1673 80.87 41.5336 80.87H38.9076V87.1414H40.1103V85.294H41.7641L42.8466 87.1514L44.2197 87.1414ZM50.3938 84.0057C50.3951 84.282 50.3416 84.5557 50.2365 84.8113C50.1313 85.0669 49.9764 85.2993 49.7809 85.4951C49.5853 85.6909 49.3528 85.8463 49.0968 85.9523C48.8407 86.0583 48.5662 86.1129 48.289 86.1128C47.9997 86.1327 47.7094 86.0931 47.4361 85.9965C47.1628 85.8998 46.9124 85.7482 46.7004 85.5511C46.4885 85.3539 46.3194 85.1155 46.2038 84.8505C46.0883 84.5855 46.0286 84.2996 46.0286 84.0107C46.0286 83.7218 46.0883 83.436 46.2038 83.171C46.3194 82.906 46.4885 82.6675 46.7004 82.4703C46.9124 82.2732 47.1628 82.1216 47.4361 82.025C47.7094 81.9283 47.9997 81.8887 48.289 81.9086C48.5658 81.9073 48.8401 81.9606 49.096 82.0655C49.352 82.1704 49.5845 82.3249 49.7803 82.5199C49.976 82.7149 50.131 82.9466 50.2363 83.2016C50.3416 83.4567 50.3951 83.7299 50.3938 84.0057ZM51.6266 84.0057C51.6586 83.3382 51.4893 82.6764 51.1403 82.1056C50.7914 81.5348 50.2789 81.0813 49.6689 80.8034C49.0589 80.5255 48.3793 80.436 47.7178 80.5465C47.0562 80.657 46.4431 80.9623 45.9573 81.4232C45.4716 81.8841 45.1355 82.4793 44.9924 83.1323C44.8493 83.7852 44.9058 84.4659 45.1545 85.0865C45.4032 85.7072 45.8328 86.2394 46.3879 86.6145C46.943 86.9897 47.5982 87.1906 48.2689 87.1914C48.7014 87.2102 49.1333 87.1419 49.5386 86.9905C49.944 86.8391 50.3145 86.6077 50.628 86.3103C50.9415 86.0128 51.1915 85.6554 51.3631 85.2594C51.5347 84.8635 51.6243 84.437 51.6266 84.0057ZM56.638 83.067C56.638 83.8559 56.1168 84.2354 55.2248 84.2354H53.9118V81.9186H55.2248C56.1168 81.9186 56.638 82.2881 56.638 83.067ZM57.7706 83.067C57.7706 81.6889 56.8686 80.9099 55.2849 80.9099H52.7091V87.1814H53.9118V85.3339H55.2649C55.5841 85.3803 55.9096 85.3555 56.2179 85.2611C56.5263 85.1667 56.8096 85.0051 57.0476 84.7881C57.2855 84.5711 57.472 84.3041 57.5936 84.0064C57.7152 83.7088 57.7688 83.3879 57.7506 83.067H57.7706ZM58.7528 87.1814H63.4736V86.1328H59.9556V84.555H62.9624V83.5064H59.9556V81.9585H63.3634V80.9599H58.7528V87.1814ZM67.3224 84.2754H65.8991V81.9585H67.2923C68.1944 81.9585 68.6955 82.328 68.6955 83.1069C68.6955 83.8859 68.1944 84.2754 67.2923 84.2754H67.3224ZM69.9784 87.1814L68.6254 85.0243C69.0178 84.865 69.3495 84.5859 69.5728 84.2271C69.7961 83.8682 69.8995 83.4481 69.8682 83.0271C69.8682 81.6489 68.9461 80.87 67.3224 80.87H64.6964V87.1414H65.8991V85.294H67.5429L68.6354 87.1514L69.9784 87.1814ZM73.6368 81.9685H75.6414V80.9099H70.4996V81.9685H72.5042V87.1814H73.717L73.6368 81.9685ZM82.0059 80.9099H80.8232L79.1393 83.8559L77.4154 80.9099H76.1926L78.548 85.1741V87.1714H79.7507V85.1142L82.0059 80.9099Z" fill="white"/>
<path d="M105.15 109.221C105.463 109.187 105.779 109.187 106.092 109.221C107.015 109.261 107.125 109.531 106.423 110.03C105.833 110.327 105.195 110.52 104.539 110.6C103.782 110.739 103.014 110.816 102.244 110.829C102.173 110.829 102.133 110.829 102.123 110.749C102.119 110.718 102.126 110.686 102.142 110.659C102.159 110.631 102.184 110.611 102.214 110.6C103.135 110.035 104.121 109.582 105.15 109.251V109.221ZM110.162 113.106C109.207 113.737 108.143 114.187 107.025 114.434C105.941 114.674 104.81 114.573 103.787 114.145C102.724 113.763 101.804 113.066 101.151 112.147C100.991 111.948 101.041 111.848 101.281 111.848C103.01 111.964 104.744 111.736 106.383 111.179C106.766 111.028 107.108 110.793 107.385 110.49C107.643 110.217 107.798 109.864 107.826 109.491C107.821 109.291 107.766 109.095 107.666 108.92C107.567 108.746 107.425 108.599 107.255 108.492C106.964 108.274 106.616 108.143 106.253 108.113C105.78 108.084 105.307 108.163 104.87 108.343C104.348 108.532 103.958 108.692 103.697 108.812L102.604 109.371C101.788 109.807 101.01 110.311 100.279 110.879C100.209 110.949 100.159 110.969 100.119 110.929C100.079 110.889 100.119 110.849 100.119 110.779C101.876 107.211 104.305 102.481 107.405 96.5886C107.474 96.4852 107.499 96.3589 107.475 96.2373C107.45 96.1157 107.379 96.0086 107.275 95.9395C107.231 95.899 107.178 95.8681 107.121 95.8485C107.064 95.829 107.004 95.8214 106.944 95.826C106.883 95.8307 106.825 95.8476 106.772 95.8757C106.718 95.9039 106.671 95.9425 106.634 95.9894C105.578 96.9466 104.688 98.0701 103.998 99.3149C103.94 99.3873 103.909 99.4771 103.909 99.5696C103.909 99.6621 103.94 99.7518 103.998 99.8242C104.05 99.8951 104.117 99.9528 104.196 99.9926C104.274 100.033 104.361 100.054 104.449 100.054C101.569 105.546 99.1967 110.277 97.3325 114.245C97.3371 114.256 97.3396 114.268 97.3396 114.28C97.3396 114.292 97.3371 114.303 97.3325 114.315C97.3278 114.326 97.3254 114.337 97.3254 114.349C97.3254 114.361 97.3278 114.373 97.3325 114.384C97.3232 114.427 97.3232 114.471 97.3325 114.514C97.2792 114.572 97.2383 114.64 97.2122 114.714C97.1627 114.799 97.1224 114.89 97.0919 114.984C97.0427 115.06 97.0166 115.148 97.0166 115.238C97.0166 115.329 97.0427 115.417 97.0919 115.493C97.1391 115.561 97.2017 115.618 97.2749 115.658C97.348 115.698 97.4295 115.72 97.5129 115.723C97.593 115.724 97.6721 115.704 97.7411 115.663C97.8102 115.623 97.8665 115.564 97.9038 115.493C97.9539 115.403 98.014 115.273 98.0942 115.103C98.1744 114.934 98.2245 114.814 98.2445 114.754C98.7023 113.912 99.2947 113.149 99.9985 112.497C100.109 112.387 100.239 112.427 100.369 112.627C100.974 113.54 101.795 114.291 102.76 114.813C103.725 115.336 104.804 115.614 105.902 115.623C107.343 115.66 108.764 115.278 109.991 114.524C111.439 113.641 112.784 112.599 114 111.418C114.062 111.359 114.108 111.284 114.132 111.202C114.157 111.12 114.16 111.033 114.141 110.949C114.116 110.869 114.071 110.797 114.012 110.738C113.953 110.679 113.88 110.635 113.8 110.61C113.716 110.576 113.624 110.568 113.535 110.586C113.446 110.604 113.364 110.647 113.299 110.709C112.374 111.624 111.367 112.453 110.292 113.186L110.162 113.106ZM91.9602 111.768C91.8896 111.796 91.8126 111.803 91.7381 111.789C91.6636 111.775 91.5946 111.74 91.5392 111.688C91.3963 111.545 91.2863 111.373 91.2171 111.183C91.1478 110.993 91.121 110.791 91.1383 110.59C91.1961 110.183 91.3583 109.797 91.6094 109.471C91.8099 109.172 92.0003 109.172 92.1807 109.471C92.3418 109.768 92.4344 110.097 92.4517 110.433C92.469 110.77 92.4107 111.107 92.2809 111.418C92.2599 111.498 92.2197 111.572 92.1638 111.633C92.108 111.694 92.0381 111.74 91.9602 111.768ZM89.3543 114.764C88.6025 115.054 88.0713 114.984 87.7506 114.564C87.5801 114.312 87.4674 114.026 87.4206 113.725C87.3738 113.425 87.3941 113.118 87.48 112.827C87.6316 112.102 87.9432 111.419 88.3921 110.829C88.8171 110.227 89.3763 109.732 90.0258 109.381C90.1031 109.322 90.1986 109.29 90.2964 109.291C90.3621 109.3 90.4224 109.332 90.4668 109.381C90.4806 109.4 90.4881 109.423 90.4881 109.446C90.4881 109.469 90.4806 109.492 90.4668 109.511C90.1967 110.048 90.1121 110.659 90.2263 111.249C90.3329 111.841 90.6583 112.372 91.1383 112.737C91.3889 112.916 91.3889 113.146 91.1383 113.416C90.6396 113.999 90.021 114.469 89.3242 114.794L89.3543 114.764ZM93.6541 111.988C93.3835 111.988 93.2131 111.988 93.1429 111.918C93.0727 111.848 93.0727 111.718 93.1429 111.518C93.2287 111.191 93.2857 110.857 93.3133 110.52C93.3544 110.172 93.323 109.82 93.2213 109.485C93.1195 109.15 92.9495 108.839 92.7219 108.572C92.5104 108.341 92.2514 108.158 91.9626 108.036C91.6738 107.914 91.3619 107.855 91.0481 107.863C90.1667 107.897 89.3285 108.253 88.6928 108.862C87.9442 109.489 87.3393 110.269 86.9187 111.149C86.532 111.882 86.3065 112.689 86.2572 113.516C86.2337 114.079 86.4355 114.628 86.8185 115.044C86.9872 115.232 87.192 115.385 87.421 115.493C87.65 115.601 87.8984 115.662 88.1515 115.673C88.7018 115.687 89.2496 115.595 89.7652 115.403C90.7553 114.988 91.6019 114.294 92.2008 113.406C92.2982 113.286 92.4223 113.19 92.5631 113.126C92.704 113.062 92.8578 113.031 93.0126 113.036C93.5784 113.009 94.1413 112.939 94.6964 112.827C96.412 112.574 98.0625 111.994 99.5575 111.119C99.6263 111.072 99.683 111.009 99.723 110.937C99.7631 110.864 99.7854 110.782 99.7881 110.699C99.787 110.616 99.7655 110.534 99.7253 110.461C99.6851 110.388 99.6275 110.326 99.5575 110.28C99.4849 110.222 99.3948 110.191 99.3019 110.191C99.2091 110.191 99.119 110.222 99.0464 110.28C97.4234 111.296 95.5678 111.883 93.6541 111.988ZM86.3674 111.209L85.3652 112.058L84.4531 112.777C83.992 113.146 83.6312 113.406 83.3907 113.566L82.3884 114.175C82.0211 114.399 81.6394 114.599 81.2458 114.774C80.8819 114.937 80.5068 115.074 80.1232 115.183C79.7846 115.35 79.3991 115.395 79.0307 115.313C78.8039 115.247 78.6039 115.11 78.4594 114.924C78.318 114.701 78.2579 114.436 78.289 114.175C78.2972 113.838 78.3409 113.503 78.4193 113.176C78.5176 112.797 78.6381 112.423 78.7802 112.058C78.8403 111.878 78.9205 111.658 79.0107 111.418C79.1009 111.179 79.2011 110.959 79.2312 110.859C79.2612 110.759 79.3114 110.62 79.3715 110.44C79.4316 110.26 79.4717 110.1 79.5018 109.95C79.5319 109.801 79.5619 109.651 79.592 109.481C79.6122 109.335 79.6122 109.187 79.592 109.042C79.5632 108.916 79.5264 108.793 79.4818 108.672C79.4472 108.56 79.3723 108.464 79.2713 108.403C79.1353 108.345 78.9881 108.317 78.8403 108.323C78.1287 108.323 76.7856 109.211 74.8311 110.979C74.33 111.428 73.8288 111.908 73.2776 112.427C73.2074 112.517 73.1473 112.537 73.0872 112.507C73.027 112.477 73.027 112.397 73.0872 112.287C73.6284 111.102 74.4937 109.388 75.6831 107.144C75.7326 107.07 75.7591 106.983 75.7591 106.895C75.7591 106.806 75.7326 106.719 75.6831 106.645C75.6381 106.573 75.5754 106.513 75.5009 106.472C75.4263 106.43 75.3424 106.409 75.2571 106.409C75.1718 106.409 75.0879 106.43 75.0133 106.472C74.9388 106.513 74.8761 106.573 74.8311 106.645C73.364 109.345 72.0587 112.13 70.9222 114.984C70.8995 115.032 70.8873 115.086 70.8862 115.139C70.8851 115.193 70.8953 115.247 70.916 115.296C70.9367 115.346 70.9676 115.391 71.0066 115.428C71.0456 115.466 71.092 115.494 71.1427 115.513C71.2292 115.583 71.34 115.616 71.4508 115.605C71.5617 115.593 71.6635 115.539 71.7341 115.453C72.8366 114.305 74.0093 113.136 75.2721 111.948C76.1491 111.108 77.0871 110.333 78.0785 109.631C78.1275 109.582 78.1885 109.547 78.2554 109.53C78.3224 109.512 78.3927 109.513 78.4594 109.531C78.5897 109.581 78.6198 109.701 78.5496 109.901C78.3558 110.495 78.1283 111.079 77.8681 111.648C77.7215 112.028 77.5943 112.414 77.4872 112.807C77.3449 113.226 77.2573 113.663 77.2266 114.105C77.1944 114.386 77.2265 114.671 77.3205 114.939C77.4145 115.206 77.568 115.449 77.7695 115.648C77.9711 115.848 78.2153 116 78.4841 116.092C78.7528 116.185 79.0391 116.215 79.3214 116.182C80.0103 116.19 80.6933 116.054 81.326 115.783C82.189 115.386 83.0171 114.919 83.8016 114.384C84.6936 113.795 85.3551 113.316 85.8062 112.956L88.0212 111.109C88.0805 111.054 88.1239 110.984 88.1468 110.907C88.1697 110.83 88.1713 110.748 88.1515 110.669C88.1254 110.589 88.0797 110.515 88.0186 110.456C87.9574 110.397 87.8826 110.354 87.8007 110.33C87.72 110.297 87.632 110.286 87.5456 110.299C87.4593 110.311 87.3779 110.346 87.3096 110.4L86.4176 111.169L86.3674 111.209ZM65.57 111.658C65.4995 111.686 65.4224 111.693 65.3479 111.679C65.2734 111.665 65.2045 111.63 65.1491 111.578C65.0061 111.435 64.8961 111.263 64.8269 111.073C64.7577 110.883 64.7308 110.681 64.7481 110.48C64.8059 110.073 64.9681 109.687 65.2192 109.361C65.4197 109.062 65.6101 109.062 65.7905 109.361C65.9516 109.658 66.0442 109.987 66.0615 110.324C66.0788 110.661 66.0205 110.997 65.8908 111.309C65.8697 111.388 65.8295 111.462 65.7736 111.523C65.7178 111.584 65.6479 111.63 65.57 111.658ZM62.954 114.654C62.2124 114.944 61.6811 114.874 61.3604 114.454C61.1899 114.202 61.0772 113.916 61.0304 113.616C60.9837 113.315 61.0039 113.008 61.0898 112.717C61.2365 111.992 61.5448 111.309 61.9919 110.719C62.4205 110.117 62.9831 109.621 63.6356 109.271C63.713 109.212 63.8084 109.18 63.9062 109.182C63.9709 109.193 64.0304 109.225 64.0766 109.271C64.0904 109.29 64.0979 109.313 64.0979 109.336C64.0979 109.36 64.0904 109.382 64.0766 109.401C63.8065 109.938 63.7219 110.549 63.8361 111.139C63.9428 111.731 64.2682 112.262 64.7481 112.627C64.9987 112.807 64.9987 113.036 64.7481 113.306C64.2478 113.892 63.6253 114.362 62.924 114.684L62.954 114.654ZM67.3841 112.028C67.1135 112.028 66.9431 112.028 66.873 111.958C66.8421 111.896 66.826 111.827 66.826 111.758C66.826 111.689 66.8421 111.62 66.873 111.558C66.9588 111.231 67.0158 110.897 67.0434 110.56C67.0844 110.212 67.0531 109.86 66.9514 109.525C66.8496 109.19 66.6796 108.879 66.452 108.612C66.2405 108.381 65.9815 108.198 65.6927 108.076C65.4038 107.954 65.092 107.895 64.7782 107.903C63.8964 107.935 63.0575 108.291 62.4228 108.902C61.6743 109.529 61.0694 110.309 60.6488 111.189C60.2621 111.922 60.0366 112.729 59.9873 113.556C59.9638 114.119 60.1656 114.668 60.5486 115.083C60.7172 115.272 60.9221 115.425 61.1511 115.533C61.3801 115.641 61.6285 115.702 61.8816 115.713C62.4319 115.726 62.9797 115.635 63.4953 115.443C64.4854 115.028 65.332 114.334 65.9308 113.446C66.0283 113.326 66.1524 113.23 66.2932 113.166C66.4341 113.102 66.5879 113.071 66.7427 113.076C67.3085 113.049 67.8714 112.979 68.4265 112.866C70.1421 112.614 71.7926 112.034 73.2876 111.159C73.3564 111.112 73.4131 111.049 73.4531 110.977C73.4932 110.904 73.5155 110.822 73.5182 110.739C73.5171 110.656 73.4956 110.574 73.4554 110.501C73.4152 110.428 73.3576 110.366 73.2876 110.32C73.2149 110.262 73.1249 110.231 73.032 110.231C72.9392 110.231 72.8491 110.262 72.7765 110.32C71.1595 111.32 69.3149 111.897 67.4142 111.998L67.3841 112.028ZM60.2579 111.089C59.9572 111.339 59.3959 111.768 58.5841 112.397C57.8929 112.943 57.1737 113.453 56.4292 113.925C55.7977 114.325 55.1362 114.704 54.4246 115.073C53.9016 115.394 53.304 115.572 52.6906 115.593C52.4881 115.597 52.2901 115.534 52.1282 115.412C51.9664 115.291 51.8503 115.119 51.7986 114.924C51.6741 114.698 51.6418 114.433 51.7084 114.185C51.7685 113.845 51.8086 113.576 51.8487 113.376C51.9067 113.087 51.9975 112.805 52.1193 112.537C52.2233 112.252 52.3472 111.975 52.4902 111.708C52.5904 111.518 52.7207 111.269 52.8711 110.949C53.0214 110.63 53.1316 110.43 53.1818 110.32C53.2891 110.079 53.413 109.845 53.5526 109.621C53.7401 109.303 53.8978 108.969 54.0237 108.622C54.109 108.375 54.1431 108.114 54.1239 107.853C54.037 106.702 52.6305 107.227 49.9043 109.431C48.6414 110.43 47.6291 111.299 46.8974 112.018C46.7838 112.104 46.6936 112.134 46.6268 112.108C46.5567 112.108 46.5567 111.988 46.6268 111.848C49.7339 105.15 52.4802 99.4913 54.8656 94.871C54.8989 94.82 54.9218 94.7628 54.9328 94.703C54.9438 94.6431 54.9427 94.5816 54.9296 94.5222C54.9166 94.4627 54.8918 94.4064 54.8567 94.3566C54.8216 94.3067 54.777 94.2643 54.7253 94.2318C54.6849 94.187 54.6354 94.1511 54.5802 94.1265C54.5249 94.1019 54.4651 94.0893 54.4045 94.0893C54.344 94.0893 54.2842 94.1019 54.2289 94.1265C54.1737 94.1511 54.1242 94.187 54.0838 94.2318C53.0306 95.3148 52.1334 96.5381 51.4177 97.8669C51.3703 97.9397 51.345 98.0247 51.345 98.1116C51.345 98.1984 51.3703 98.2834 51.4177 98.3562C51.4638 98.4274 51.5258 98.4869 51.5989 98.5302C51.6719 98.5735 51.754 98.5994 51.8387 98.6059C49.6738 102.927 47.0311 108.486 43.9106 115.283V115.343C43.9042 115.366 43.9042 115.39 43.9106 115.413C43.8945 115.534 43.9206 115.656 43.9845 115.76C44.0484 115.863 44.1462 115.942 44.2614 115.982C44.3121 116.012 44.3689 116.03 44.4275 116.034C44.4861 116.038 44.5449 116.028 44.5993 116.006C44.6536 115.984 44.7021 115.95 44.7408 115.906C44.7796 115.861 44.8076 115.809 44.8227 115.753C46.7424 113.352 48.9931 111.234 51.5079 109.461C51.8103 109.231 52.1248 109.018 52.4501 108.822C52.5285 108.763 52.6226 108.728 52.7207 108.722C52.831 108.722 52.8711 108.782 52.8209 108.892C51.8988 110.889 51.3476 112.167 51.1672 112.727C50.997 113.186 50.8892 113.667 50.8464 114.155C50.8138 114.594 50.8544 115.036 50.9667 115.463C51.0155 115.663 51.1107 115.848 51.2448 116.004C51.3789 116.16 51.548 116.283 51.7385 116.362C52.2616 116.543 52.8271 116.563 53.3622 116.422C53.7741 116.325 54.1792 116.202 54.5749 116.052C54.9613 115.918 55.3395 115.761 55.7075 115.583C56.1155 115.377 56.5105 115.147 56.8902 114.894L57.9526 114.205C58.2032 114.045 58.5741 113.775 59.0652 113.386L60.0675 112.587L61.0697 111.718C61.3902 111.467 61.6948 111.197 61.9818 110.909C62.0447 110.856 62.0919 110.788 62.1184 110.71C62.1448 110.633 62.1496 110.55 62.1322 110.47C62.1129 110.388 62.0705 110.314 62.0101 110.255C61.9497 110.197 61.8738 110.157 61.7914 110.14C61.7111 110.103 61.6209 110.093 61.5342 110.111C61.4475 110.129 61.369 110.174 61.3103 110.24L60.308 111.079L60.2579 111.089ZM45.4241 99.275H44.4218C44.3905 99.2758 44.3595 99.269 44.3316 99.255C44.3036 99.2411 44.2795 99.2205 44.2614 99.1951C44.2364 99.1343 44.2364 99.0661 44.2614 99.0053C45.2971 97.1013 46.2426 95.4835 47.0979 94.1519C47.9532 92.8204 48.5145 92.1547 48.7817 92.1547C49.0924 92.1547 48.9421 92.8337 48.3106 94.1519C47.6792 95.4702 46.8172 97.1479 45.7147 99.0753C45.6992 99.1261 45.6672 99.1704 45.6236 99.2012C45.5801 99.2319 45.5275 99.2473 45.4742 99.245L45.4241 99.275ZM41.2345 105.656C41.2114 105.66 41.1877 105.658 41.1655 105.65C41.1433 105.643 41.1231 105.63 41.1066 105.614C41.09 105.598 41.0776 105.577 41.0702 105.555C41.0628 105.533 41.0608 105.51 41.0641 105.487C41.0641 105.047 41.8526 103.333 43.4295 100.344C43.4384 100.314 43.4571 100.288 43.4825 100.27C43.5079 100.251 43.5386 100.242 43.5698 100.244H44.5721C44.6068 100.244 44.6407 100.254 44.6705 100.271C44.7004 100.289 44.7252 100.314 44.7425 100.344C44.763 100.367 44.7742 100.397 44.7742 100.428C44.7742 100.46 44.763 100.49 44.7425 100.513C42.7379 103.962 41.5552 105.686 41.1944 105.686L41.2345 105.656ZM47.138 99.235C47.1069 99.2362 47.0761 99.2283 47.0494 99.2124C47.0227 99.1964 47.0012 99.1731 46.9876 99.1452C46.9727 99.1175 46.9649 99.0866 46.9649 99.0553C46.9649 99.0239 46.9727 98.993 46.9876 98.9654C47.7788 97.5293 48.4784 96.0451 49.0824 94.5214C49.4133 93.7862 49.6296 93.0049 49.7239 92.2046C49.6992 91.9342 49.6172 91.6721 49.4833 91.4356C49.4137 91.3117 49.3093 91.2107 49.1829 91.145C49.0565 91.0794 48.9136 91.052 48.7717 91.0661C47.5422 91.0661 45.5744 93.7758 42.8682 99.1951C42.8569 99.2302 42.8338 99.2603 42.8027 99.2803C42.7717 99.3003 42.7346 99.309 42.6978 99.3049C37.2521 99.3649 33.0124 99.3981 29.9788 99.4048C29.8939 99.3985 29.809 99.4168 29.7343 99.4576C29.6596 99.4984 29.5983 99.5598 29.5579 99.6345C29.5184 99.71 29.4977 99.794 29.4977 99.8792C29.4977 99.9643 29.5184 100.048 29.5579 100.124C29.5931 100.204 29.6527 100.271 29.7282 100.316C29.8036 100.361 29.8913 100.381 29.9788 100.373C32.9256 100.373 36.9347 100.34 42.0063 100.274C42.0374 100.272 42.0682 100.28 42.0949 100.296C42.1216 100.312 42.143 100.336 42.1566 100.363C42.1715 100.391 42.1793 100.422 42.1793 100.453C42.1793 100.485 42.1715 100.516 42.1566 100.543C42.1566 100.653 42.0464 100.803 41.9562 100.983L41.7858 101.322C39.4033 106.185 37.3181 111.188 35.5415 116.302C35.1199 117.491 34.7586 118.701 34.4591 119.927C34.3488 120.376 34.2786 120.696 34.2386 120.926C34.2013 121.217 34.1812 121.51 34.1784 121.804C34.1505 122.129 34.2278 122.455 34.3989 122.733C34.4499 122.803 34.5182 122.86 34.5971 122.896C34.676 122.933 34.7631 122.949 34.8499 122.943C34.9327 122.939 35.0131 122.914 35.0833 122.87C35.1536 122.827 35.2113 122.766 35.2509 122.693C35.3021 122.626 35.3298 122.543 35.3298 122.458C35.3298 122.374 35.3021 122.291 35.2509 122.224C35.1727 122.073 35.1381 121.904 35.1506 121.734C35.128 121.552 35.128 121.368 35.1506 121.185C35.1506 121.025 35.2308 120.816 35.301 120.546C35.3711 120.276 35.4112 120.117 35.4313 120.077C35.7599 118.724 36.1648 117.39 36.644 116.082C37.2387 114.371 37.9069 112.61 38.6486 110.799C38.7369 110.623 38.8374 110.453 38.9493 110.29C41.606 107.3 43.9782 104.07 46.0355 100.643C46.0891 100.548 46.168 100.47 46.2636 100.417C46.3591 100.364 46.4675 100.339 46.5767 100.344C51.6683 100.27 55.6775 100.237 58.6041 100.244C58.6931 100.252 58.7823 100.231 58.8583 100.184C58.9342 100.137 58.9928 100.067 59.0251 99.984C59.0647 99.9067 59.0853 99.8211 59.0853 99.7343C59.0853 99.6476 59.0647 99.562 59.0251 99.4847C58.9911 99.4036 58.9318 99.3355 58.856 99.2905C58.7802 99.2456 58.6919 99.2261 58.6041 99.235L47.0678 99.3349L47.138 99.235ZM36.9247 99.3349H35.9224C35.8911 99.3357 35.8602 99.3289 35.8322 99.3149C35.8042 99.301 35.7801 99.2804 35.762 99.255C35.7471 99.2256 35.7393 99.1931 35.7393 99.1601C35.7393 99.1272 35.7471 99.0947 35.762 99.0653C36.7977 97.1612 37.7432 95.5434 38.5985 94.2119C39.4538 92.8803 40.0151 92.2146 40.2823 92.2146C40.5931 92.2146 40.4427 92.8937 39.8113 94.2119C39.1798 95.5301 38.3078 97.2078 37.2153 99.1352C37.1998 99.186 37.1678 99.2303 37.1242 99.2611C37.0807 99.2918 37.0281 99.3072 36.9748 99.3049L36.9247 99.3349ZM32.8554 105.726C32.8322 105.73 32.8086 105.727 32.7864 105.72C32.7642 105.713 32.744 105.7 32.7275 105.684C32.7109 105.667 32.6985 105.647 32.6911 105.625C32.6837 105.603 32.6817 105.58 32.685 105.556C32.685 105.117 33.4735 103.403 35.0504 100.413C35.0593 100.384 35.0779 100.358 35.1034 100.339C35.1288 100.321 35.1595 100.312 35.1907 100.314H36.193C36.2277 100.314 36.2616 100.324 36.2914 100.341C36.3213 100.359 36.3461 100.384 36.3634 100.413C36.3839 100.437 36.3951 100.467 36.3951 100.498C36.3951 100.529 36.3839 100.56 36.3634 100.583C34.3588 104.032 33.1761 105.756 32.8153 105.756L32.8554 105.726ZM38.7589 99.3049C38.7278 99.3061 38.697 99.2982 38.6703 99.2823C38.6436 99.2663 38.6221 99.243 38.6085 99.2151C38.5936 99.1874 38.5858 99.1565 38.5858 99.1252C38.5858 99.0938 38.5936 99.0629 38.6085 99.0353C39.3997 97.5992 40.0993 96.115 40.7033 94.5913C41.0342 93.8561 41.2505 93.0748 41.3448 92.2745C41.3201 92.0041 41.2381 91.742 41.1042 91.5055C41.0346 91.3816 40.9302 91.2806 40.8038 91.2149C40.6774 91.1493 40.5344 91.1219 40.3926 91.136C39.1631 91.136 37.1953 93.8457 34.4891 99.265C34.4778 99.3001 34.4546 99.3302 34.4236 99.3502C34.3925 99.3702 34.3555 99.3789 34.3187 99.3748C28.873 99.4348 24.6333 99.468 21.5997 99.4747C21.5148 99.4684 21.4298 99.4867 21.3551 99.5275C21.2804 99.5683 21.2192 99.6297 21.1788 99.7044C21.1392 99.7799 21.1186 99.8639 21.1186 99.9491C21.1186 100.034 21.1392 100.118 21.1788 100.194C21.214 100.274 21.2736 100.341 21.349 100.386C21.4245 100.431 21.5122 100.451 21.5997 100.443C24.5465 100.443 28.5556 100.41 33.6272 100.344C33.6583 100.342 33.6891 100.35 33.7158 100.366C33.7425 100.382 33.7639 100.405 33.7775 100.433C33.7924 100.461 33.8002 100.492 33.8002 100.523C33.8002 100.555 33.7924 100.586 33.7775 100.613C33.7274 100.723 33.6673 100.873 33.577 101.053L33.4067 101.392C31.0242 106.255 28.939 111.258 27.1624 116.372C26.7851 117.524 26.464 118.694 26.2002 119.877C26.09 120.326 26.0198 120.646 25.9797 120.876C25.9424 121.167 25.9224 121.461 25.9196 121.754C25.8887 122.078 25.9624 122.404 26.1301 122.683C26.1839 122.753 26.2541 122.809 26.3344 122.845C26.4148 122.882 26.5029 122.898 26.5911 122.893C26.6739 122.889 26.7542 122.864 26.8245 122.82C26.8947 122.777 26.9524 122.716 26.992 122.643C27.0433 122.576 27.071 122.493 27.071 122.409C27.071 122.324 27.0433 122.241 26.992 122.174C26.9139 122.023 26.8792 121.854 26.8918 121.685C26.8692 121.502 26.8692 121.318 26.8918 121.135C26.8918 120.975 26.972 120.766 27.0421 120.496C27.0797 120.319 27.1334 120.145 27.2025 119.977C27.5312 118.624 27.9361 117.29 28.4153 115.982C29.01 114.271 29.6782 112.51 30.4198 110.699C30.5081 110.523 30.6086 110.353 30.7205 110.19C33.3772 107.2 35.7495 103.97 37.8067 100.543C37.8603 100.448 37.9393 100.37 38.0348 100.317C38.1304 100.264 38.2387 100.239 38.3479 100.244C43.4395 100.17 47.4487 100.137 50.3754 100.144C50.4638 100.149 50.5517 100.127 50.627 100.08C50.7023 100.034 50.7614 99.9653 50.7963 99.8842C50.8359 99.8068 50.8566 99.7213 50.8566 99.6345C50.8566 99.5477 50.8359 99.4621 50.7963 99.3848C50.7611 99.3047 50.7015 99.2375 50.626 99.1927C50.5506 99.1479 50.4629 99.1278 50.3754 99.1352L38.8391 99.235L38.7589 99.3049ZM16.0571 119.777C15.153 120.582 14.188 121.317 13.1705 121.974C12.1589 122.646 11.0725 123.199 9.93312 123.622C8.87445 124.001 7.74753 124.154 6.62558 124.071C5.49721 124.001 4.42158 123.571 3.55859 122.843C2.78008 122.253 2.16874 121.472 1.78454 120.576C1.36276 119.63 1.12144 118.614 1.07291 117.58C0.998384 116.583 0.998384 115.581 1.07291 114.584C1.16887 113.608 1.31607 112.638 1.51392 111.678C1.95789 109.777 2.63097 107.936 3.51849 106.196C3.54406 106.141 3.58168 106.093 3.62854 106.055C3.6754 106.017 3.73029 105.99 3.78911 105.976C3.84508 105.945 3.90859 105.931 3.97239 105.934C4.0362 105.938 4.09772 105.959 4.14993 105.996C5.38876 107.159 6.84218 108.071 8.42969 108.682C8.50387 108.729 8.59166 108.749 8.67892 108.74C8.76619 108.731 8.84786 108.693 8.91079 108.632C8.97491 108.573 9.02453 108.5 9.0558 108.418C9.08708 108.337 9.09919 108.25 9.0912 108.163C9.08925 108.076 9.06022 107.992 9.00815 107.922C8.95608 107.852 8.88353 107.8 8.80054 107.773C7.16859 107.13 5.68765 106.158 4.45062 104.917C4.40186 104.854 4.3754 104.777 4.3754 104.698C4.3754 104.618 4.40186 104.541 4.45062 104.478C5.73154 102.273 7.35922 100.287 9.27161 98.5959C9.33436 98.5318 9.38215 98.4548 9.4116 98.3702C9.44105 98.2856 9.45143 98.1956 9.442 98.1066C9.43037 98.025 9.39739 97.9479 9.34637 97.883C9.29535 97.8182 9.22808 97.7678 9.15134 97.7371C9.07244 97.697 8.98246 97.6841 8.89543 97.7004C8.8084 97.7166 8.72921 97.7611 8.67024 97.827C6.85099 99.4127 5.28006 101.261 4.00961 103.309C3.97231 103.364 3.92102 103.408 3.8611 103.436C3.80117 103.464 3.73478 103.475 3.66883 103.469C3.59964 103.475 3.53047 103.458 3.47111 103.423C3.41175 103.387 3.36521 103.333 3.33808 103.27C2.79507 102.108 2.73384 100.781 3.16769 99.5746C3.72026 97.9595 4.7731 96.5608 6.17455 95.58C7.65408 94.4842 9.32674 93.6747 11.1058 93.1932C12.3718 92.8549 13.6742 92.6705 14.9846 92.644C16.2907 92.6029 17.5954 92.7612 18.8535 93.1134C20.0446 93.434 21.1777 93.9395 22.2111 94.6113C23.2211 95.2867 24.0531 96.1944 24.6367 97.2577C25.2887 98.4318 25.6334 99.7507 25.6389 101.093C25.6952 104.032 25.0348 106.942 23.7146 109.571C22.3389 112.445 20.553 115.106 18.4125 117.47C17.7001 118.277 16.9404 119.04 16.1373 119.757L16.0571 119.777ZM25.8695 97.5174C25.4422 96.4884 24.8038 95.5598 23.9952 94.7911C23.1975 94.0456 22.2878 93.429 21.299 92.9636C20.269 92.4611 19.1721 92.108 18.0416 91.915C16.874 91.7121 15.6878 91.6351 14.5035 91.6853C13.3043 91.7242 12.1136 91.9018 10.9555 92.2146C8.89488 92.7405 6.96871 93.6933 5.30256 95.0108C3.72544 96.1754 2.58279 97.8304 2.05516 99.7144C1.81331 100.559 1.76703 101.447 1.91982 102.312C2.0726 103.177 2.42046 103.996 2.93717 104.708C2.97557 104.762 2.9962 104.826 2.9962 104.892C2.9962 104.959 2.97557 105.023 2.93717 105.077C2.02317 106.794 1.31021 108.61 0.812317 110.49C-0.470609 115.297 -0.290196 119.085 1.35355 121.854C1.97882 122.981 2.93791 123.888 4.09981 124.451C5.16447 124.951 6.34745 125.148 7.51761 125.02C8.76046 124.853 9.97447 124.517 11.1258 124.021C12.3223 123.52 13.4642 122.897 14.5336 122.164C15.5205 121.493 16.4522 120.745 17.32 119.927C20.0288 117.364 22.2914 114.371 24.0152 111.069C25.7043 108.03 26.5712 104.606 26.531 101.132C26.4957 99.9027 26.2306 98.6903 25.7492 97.5573" fill="white"/>
</g>
<defs>
<clipPath id="clip0_1246_2924">
<rect width="114" height="125" fill="white"/>
</clipPath>
</defs>
</svg>
