<svg width="33" height="33" viewBox="0 0 33 33" fill="none" xmlns="http://www.w3.org/2000/svg">
<circle cx="16.2539" cy="16.6992" r="15" stroke="#C29E7A" stroke-width="2"/>
<path d="M13.4349 13.2483V22.6992H10.4271V13.2483H13.4349ZM13.6263 10.33C13.6324 10.7941 13.4789 11.182 13.166 11.4935C12.8531 11.805 12.4414 11.9608 11.931 11.9608H11.9128C11.4145 11.9608 11.0135 11.805 10.7096 11.4935C10.4058 11.182 10.2539 10.7941 10.2539 10.33C10.2539 9.85953 10.4104 9.47011 10.7233 9.16175C11.0362 8.8534 11.4449 8.69922 11.9492 8.69922C12.4536 8.69922 12.8576 8.8534 13.1615 9.16175C13.4653 9.47011 13.6202 9.85953 13.6263 10.33ZM24.2539 17.2823V22.6992H21.2552V17.6447C21.2552 16.9771 21.1322 16.4542 20.8861 16.0759C20.64 15.6976 20.2556 15.5085 19.7331 15.5085C19.3503 15.5085 19.0297 15.6182 18.7715 15.8375C18.5132 16.0568 18.3203 16.3286 18.1927 16.6529C18.1259 16.8436 18.0924 17.1011 18.0924 17.4254V22.6992H15.0938C15.1059 20.1624 15.112 18.1057 15.112 16.5289C15.112 14.9522 15.1089 14.0112 15.1029 13.706L15.0938 13.2483H18.0924V14.6216H18.0742C18.1957 14.4181 18.3203 14.2401 18.4479 14.0875C18.5755 13.9349 18.7472 13.7696 18.9629 13.5916C19.1786 13.4136 19.4429 13.2753 19.7559 13.1767C20.0688 13.0782 20.4167 13.0289 20.7995 13.0289C21.8385 13.0289 22.674 13.3897 23.306 14.1113C23.9379 14.833 24.2539 15.89 24.2539 17.2823Z" fill="#C29E7A"/>
</svg>
