<svg width="51" height="40" viewBox="0 0 51 40" fill="none" xmlns="http://www.w3.org/2000/svg">
<path d="M46.1842 3C43.0525 3.10592 42.5126 5.54206 41.1087 10.5202H43.1605C42.0806 10.6262 40.7847 11.5794 40.5687 12.7445L36.681 27.2555C34.3052 36.3645 26.6378 37 21.2383 37C26.0979 37 29.6616 36.4704 32.5774 27.3614L36.465 12.7445C36.789 11.5794 36.2491 10.6262 35.1692 10.5202H37.113C37.8689 7.23676 38.8408 3.10592 46.1842 3ZM46.7242 3H50.9359L49.532 8.40187C50.3959 5.01246 49.1 3.10592 46.7242 3Z" fill="white"/>
<path d="M7.63098 3L11.4107 25.0312L8.27894 30.2212L3.74329 5.75389C3.41932 4.05919 2.66341 3 0.935547 3H7.63098ZM22.9657 3L26.7454 25.0312L23.6137 30.2212L18.6461 3H22.9657Z" fill="white"/>
</svg>
